<svg xmlns="http://www.w3.org/2000/svg" xmlns:xlink="http://www.w3.org/1999/xlink" width="500" zoomAndPan="magnify" viewBox="0 0 375 374.999991" height="500" preserveAspectRatio="xMidYMid meet" version="1.0"><defs><g/></defs><g fill="#ffffff" fill-opacity="1"><g transform="translate(169.997396, 286.499962)"><g><path d="M 112.5 -164 C 112.5 -187.5 100 -199.996094 76.5 -199.996094 L 48.5 -199.996094 C 25 -199.996094 12.5 -187.5 12.5 -164 L 12.5 -36 C 12.5 -12.5 25 0 48.5 0 L 64 0 L 72.5 18.5 C 73.5 20.5 74.25 22 76.75 22 L 102.75 22 C 105.5 22 107.5 20.25 106.25 17.5 L 96.25 -4 C 107 -9.5 112.5 -20.25 112.5 -36 Z M 46.5 -157 C 46.5 -163.5 50 -167 56.5 -167 L 69.5 -167 C 76 -167 79.5 -163.5 79.5 -157 L 79.5 -43 C 79.5 -36.25 76 -33 69.5 -33 L 56.5 -33 C 50 -33 46.5 -36.25 46.5 -43 Z M 46.5 -157 "/></g></g></g><g fill="#262f80" fill-opacity="1"><g transform="translate(80.418398, 287.25)"><g><path d="M 133 0 C 136 0 137 -1.5 136.5 -4.25 L 95 -196.496094 C 94.5 -198.996094 93 -199.996094 90.75 -199.996094 L 56 -199.996094 C 53.75 -199.996094 52.25 -198.996094 51.75 -196.496094 L 10.25 -4.25 C 9.5 -1.5 10.75 0 13.5 0 L 40.25 0 C 42.5 0 43.75 -1.25 44.25 -3.5 L 51 -40 L 95.5 -40 L 102.5 -3.5 C 103 -1.25 104.25 0 106.5 0 Z M 89.25 -69 L 57.25 -69 L 73.25 -156.25 Z M 89.25 -69 "/></g></g></g></svg>